HIERARCHY
ROOT hip
{
  OFFSET 0 0 0
  CHANNELS 6 Xposition Yposition Zposition Zrotation Yrotation Xrotation
  JOINT abdomen
  {
    OFFSET 0 20.6881 -0.73152
    CHANNELS 3 Zrotation Xrotation Yrotation
    JOINT chest
    {
      OFFSET 0 11.7043 -0.48768
      CHANNELS 3 Zrotation Xrotation Yrotation
      JOINT neck
      {
        OFFSET 0 22.1894 -2.19456
        CHANNELS 3 Zrotation Xrotation Yrotation
        JOINT head
        {
          OFFSET -0.24384 7.07133 1.2192
          CHANNELS 3 Zrotation Xrotation Yrotation
          JOINT leftEye
          {
            OFFSET 4.14528 8.04674 8.04672
            CHANNELS 3 Zrotation Xrotation Yrotation
            End Site
            {
              OFFSET 1 0 0
            }
          }
          JOINT rightEye
          {
            OFFSET -3.6576 8.04674 8.04672
            CHANNELS 3 Zrotation Xrotation Yrotation
            End Site
            {
              OFFSET 1 0 0
            }
          }
        }
      }
      JOINT rCollar
      {
        OFFSET -2.68224 19.2634 -4.8768
        CHANNELS 3 Zrotation Xrotation Yrotation
        JOINT rShldr
        {
          OFFSET -8.77824 -1.95073 1.46304
          CHANNELS 3 Zrotation Xrotation Yrotation
          JOINT rForeArm
          {
            OFFSET -28.1742 -1.7115 0.48768
            CHANNELS 3 Zrotation Xrotation Yrotation
            JOINT rHand
            {
              OFFSET -22.5879 0.773209 7.07136
              CHANNELS 3 Zrotation Xrotation Yrotation
              JOINT rThumb1
              {
                OFFSET -1.2192 -0.487915 3.41376
                CHANNELS 3 Zrotation Xrotation Yrotation
                JOINT rThumb2
                {
                  OFFSET -3.37035 -0.52449 3.41376
                  CHANNELS 3 Zrotation Xrotation Yrotation
                  End Site
                  {
                    OFFSET -1.78271 -1.18214 1.43049
                  }
                }
              }
              JOINT rIndex1
              {
                OFFSET -7.75947 0.938293 5.60832
                CHANNELS 3 Zrotation Xrotation Yrotation
                JOINT rIndex2
                {
                  OFFSET -2.54057 -0.884171 1.56538
                  CHANNELS 3 Zrotation Xrotation Yrotation
                  End Site
                  {
                    OFFSET -1.62519 -0.234802 1.16502
                  }
                }
              }
              JOINT rMid1
              {
                OFFSET -8.24714 1.18213 3.41376
                CHANNELS 3 Zrotation Xrotation Yrotation
                JOINT rMid2
                {
                  OFFSET -3.10165 -0.590103 1.0647
                  CHANNELS 3 Zrotation Xrotation Yrotation
                  End Site
                  {
                    OFFSET -2.48547 -0.328903 0.83742
                  }
                }
              }
              JOINT rRing1
              {
                OFFSET -8.82822 0.546677 1.51678
                CHANNELS 3 Zrotation Xrotation Yrotation
                JOINT rRing2
                {
                  OFFSET -2.60934 -0.819778 -0.0198488
                  CHANNELS 3 Zrotation Xrotation Yrotation
                  End Site
                  {
                    OFFSET -2.33842 -0.294052 0.168128
                  }
                }
              }
              JOINT rPinky1
              {
                OFFSET -8.27202 -0.0477905 -0.4584
                CHANNELS 3 Zrotation Xrotation Yrotation
                JOINT rPinky2
                {
                  OFFSET -1.82734 -0.647385 -0.700984
                  CHANNELS 3 Zrotation Xrotation Yrotation
                  End Site
                  {
                    OFFSET -1.69225 -0.51767 -0.607171
                  }
                }
              }
            }
          }
        }
      }
      JOINT lCollar
      {
        OFFSET 2.68224 19.2634 -4.8768
        CHANNELS 3 Zrotation Xrotation Yrotation
        JOINT lShldr
        {
          OFFSET 8.77824 -1.95073 1.46304
          CHANNELS 3 Zrotation Xrotation Yrotation
          JOINT lForeArm
          {
            OFFSET 28.1742 -1.7115 0.48768
            CHANNELS 3 Zrotation Xrotation Yrotation
            JOINT lHand
            {
              OFFSET 22.5879 0.773209 7.07136
              CHANNELS 3 Zrotation Xrotation Yrotation
              JOINT lThumb1
              {
                OFFSET 1.2192 -0.487915 3.41376
                CHANNELS 3 Zrotation Xrotation Yrotation
                JOINT lThumb2
                {
                  OFFSET 3.37035 -0.52449 3.41376
                  CHANNELS 3 Zrotation Xrotation Yrotation
                  End Site
                  {
                    OFFSET 1.78271 -1.18214 1.43049
                  }
                }
              }
              JOINT lIndex1
              {
                OFFSET 7.75947 0.938293 5.60832
                CHANNELS 3 Zrotation Xrotation Yrotation
                JOINT lIndex2
                {
                  OFFSET 2.54057 -0.884171 1.56538
                  CHANNELS 3 Zrotation Xrotation Yrotation
                  End Site
                  {
                    OFFSET 1.62519 -0.234802 1.16502
                  }
                }
              }
              JOINT lMid1
              {
                OFFSET 8.24714 1.18213 3.41376
                CHANNELS 3 Zrotation Xrotation Yrotation
                JOINT lMid2
                {
                  OFFSET 3.10165 -0.590103 1.0647
                  CHANNELS 3 Zrotation Xrotation Yrotation
                  End Site
                  {
                    OFFSET 2.48547 -0.328903 0.83742
                  }
                }
              }
              JOINT lRing1
              {
                OFFSET 8.82822 0.546677 1.51678
                CHANNELS 3 Zrotation Xrotation Yrotation
                JOINT lRing2
                {
                  OFFSET 2.60934 -0.819778 -0.0198488
                  CHANNELS 3 Zrotation Xrotation Yrotation
                  End Site
                  {
                    OFFSET 2.33842 -0.294052 0.168128
                  }
                }
              }
              JOINT lPinky1
              {
                OFFSET 8.27202 -0.0477905 -0.4584
                CHANNELS 3 Zrotation Xrotation Yrotation
                JOINT lPinky2
                {
                  OFFSET 1.82734 -0.647385 -0.700984
                  CHANNELS 3 Zrotation Xrotation Yrotation
                  End Site
                  {
                    OFFSET 1.69225 -0.51767 -0.607171
                  }
                }
              }
            }
          }
        }
      }
    }
  }
  JOINT rButtock
  {
    OFFSET -8.77824 4.35084 1.2192
    CHANNELS 3 Zrotation Xrotation Yrotation
    JOINT rThigh
    {
      OFFSET 0 -1.70687 -2.19456
      CHANNELS 3 Zrotation Xrotation Yrotation
      JOINT rShin
      {
        OFFSET 0 -36.8199 0.73152
        CHANNELS 3 Zrotation Xrotation Yrotation
        JOINT rFoot
        {
          OFFSET 0.73152 -45.1104 -5.12064
          CHANNELS 3 Zrotation Xrotation Yrotation
          End Site
          {
            OFFSET -1.1221 -3.69964 12.103
          }
        }
      }
    }
  }
  JOINT lButtock
  {
    OFFSET 8.77824 4.35084 1.2192
    CHANNELS 3 Zrotation Xrotation Yrotation
    JOINT lThigh
    {
      OFFSET 0 -1.70687 -2.19456
      CHANNELS 3 Zrotation Xrotation Yrotation
      JOINT lShin
      {
        OFFSET 0 -36.8199 0.73152
        CHANNELS 3 Zrotation Xrotation Yrotation
        JOINT lFoot
        {
          OFFSET -0.73152 -45.1104 -5.12064
          CHANNELS 3 Zrotation Xrotation Yrotation
          End Site
          {
            OFFSET 1.1221 -3.69964 12.103
          }
        }
      }
    }
  }
}
MOTION
Frames:	7
Frame Time:	0.00833333
26.2551 85.2982 -1.31369 0.0 0.0 0.0 0.984347 -0.00436097 0.0272512 0.271543 -0.00455359 0.0470442 7.29715e-15 -7.95139e-16 1.2424e-16 2.19999e-14 3.18055e-15 3.57191e-16 -0.0 0.0 0.0 -0.0 0.0 0.0 3.77571e-15 1.16475e-18 2.48481e-16 7.87105e-14 1.73937e-16 2.5842e-15 1.31735e-12 -3.926e-13 2.22639e-14 1.50708e-11 4.01868e-13 2.95792e-13 3.55489e-11 1.76342e-14 7.02903e-13 6.13819e-11 2.8625e-14 1.21895e-12 3.55546e-11 1.86858e-14 6.96541e-13 7.73091 5.47488 0.417314 3.55498e-11 1.799e-14 7.02903e-13 2.90554 0.965183 0.102902 3.55538e-11 1.74931e-14 7.06878e-13 10.2786 0.731801 0.0259123 3.55457e-11 2.0276e-14 7.15625e-13 2.22167 -0.733487 -0.20892 3.67895e-15 2.32951e-18 -1.49089e-16 7.51927e-14 6.21202e-17 9.93923e-16 1.317e-12 3.96377e-13 6.36111e-15 1.50706e-11 -3.90239e-13 3.33958e-13 3.55511e-11 1.0675e-14 7.15625e-13 6.13958e-11 1.59028e-14 1.23565e-12 3.55463e-11 1.15295e-14 7.12444e-13 -7.73091 5.47488 -0.417314 3.55511e-11 1.00386e-14 7.06083e-13 -2.90554 0.965183 -0.102902 3.5541e-11 1.07344e-14 7.13239e-13 -10.2786 0.731801 -0.0259123 3.5554e-11 1.31198e-14 7.06083e-13 -2.22167 -0.733487 0.20892 -2.03217e-16 0.0 -3.88251e-19 1.24893 -5.45296 -0.109168 6.84648e-05 4.32231 0.0238732 -0.510788 1.12953 0.0812489 2.03217e-16 0.0 3.88251e-19 0.249777 -1.91924 0.0129214 0.00928287 -2.07855 0.0766774 0.496141 3.99654 -0.137928
20.8379 83.5817 -8.66148 141.05 -85.9051 -134.704 -0.235095 -2.63571 0.244197 0.129844 1.81011 0.144047 1.46938 -1.12247 3.2363 -8.94752 4.85546 6.56007 -0.0 0.0 0.0 -0.0 0.0 0.0 -1.66924e-14 1.7561e-12 2.69194e-14 23.3395 2.77023 -0.70397 -3.69329 -1.58536 5.86556 0.000457956 -0.512468 -0.0720156 2.09646e-10 -5.04461e-10 7.11719e-10 3.62011e-10 -8.73874e-10 1.23054e-09 2.09653e-10 -5.0446e-10 7.11708e-10 7.73091 5.47488 0.417314 2.09646e-10 -5.04461e-10 7.11718e-10 2.90554 0.965183 0.102902 2.0965e-10 -5.04462e-10 7.11723e-10 10.2786 0.731801 0.0259123 2.09641e-10 -5.0446e-10 7.11732e-10 2.22167 -0.733487 -0.20892 -1.67923e-14 1.7561e-12 2.65956e-14 -22.6642 5.62926 -0.946833 3.2979 -1.35258 -5.29857 2.3071e-06 0.00115196 -0.000161902 3.27338e-10 1.89224e-10 -4.85044e-10 5.64675e-10 3.2674e-10 -8.38318e-10 3.27333e-10 1.89223e-10 -4.85045e-10 -7.73091 5.47488 -0.417314 3.27337e-10 1.89222e-10 -4.85051e-10 -2.90554 0.965183 -0.102902 3.27329e-10 1.89223e-10 -4.85047e-10 -10.2786 0.731801 -0.0259123 3.27341e-10 1.89226e-10 -4.85052e-10 -2.22167 -0.733487 0.20892 -2.03217e-16 0.0 -3.88251e-19 -0.267548 -8.23684 -1.04954 0.0220227 10.156 0.141273 -0.884704 -4.01896 -3.56853 2.03217e-16 0.0 3.88251e-19 0.137635 -5.2727 -1.25886 -0.0323805 5.59285 -0.111038 0.987268 -2.24048 4.30252
20.3388 83.4796 -8.33477 132.013 -85.445 -125.95 -1.50458 -5.41847 0.479034 -0.026437 3.73759 0.248201 3.13764 -2.2923 6.64748 -19.6015 9.85216 13.6407 -0.0 0.0 0.0 -0.0 0.0 0.0 -3.91199e-14 3.68762e-12 5.6197e-14 48.0944 5.70453 -1.43738 -7.23603 -3.19884 12.064 -0.00049719 -1.03195 -0.145038 4.32464e-10 -1.06371e-09 1.5545e-09 7.46818e-10 -1.84268e-09 2.68771e-09 4.32473e-10 -1.0637e-09 1.55449e-09 7.73091 5.47488 0.417314 4.32465e-10 -1.06371e-09 1.5545e-09 2.90554 0.965183 0.102902 4.32468e-10 -1.06371e-09 1.55451e-09 10.2786 0.731801 0.0259123 4.32459e-10 -1.06371e-09 1.55452e-09 2.22167 -0.733487 -0.20892 -3.92225e-14 3.68762e-12 5.59548e-14 -46.4073 11.6015 -1.99619 6.5142 -2.74431 -10.9105 6.30399e-06 -0.00151635 0.000213097 6.81416e-10 3.99074e-10 -1.08136e-09 1.17539e-09 6.89051e-10 -1.86901e-09 6.81411e-10 3.99072e-10 -1.08136e-09 -7.73091 5.47488 -0.417314 6.81415e-10 3.99071e-10 -1.08137e-09 -2.90554 0.965183 -0.102902 6.81408e-10 3.99072e-10 -1.08137e-09 -10.2786 0.731801 -0.0259123 6.81419e-10 3.99075e-10 -1.08137e-09 -2.22167 -0.733487 0.20892 -2.03217e-16 0.0 -3.88251e-19 -1.978 -11.1715 -2.0545 0.0181895 16.3254 0.271984 -1.9993 -9.4114 -7.50083 2.03217e-16 0.0 3.88251e-19 -0.151035 -8.80881 -2.624 -0.0205924 13.7031 -0.317456 2.56402 -8.73859 9.09869
20.8398 83.5211 -8.70256 142.344 -86.1223 -135.838 -2.6137 -7.89792 0.6838 -0.172066 5.43935 0.339366 4.78706 -3.32444 9.72357 -30.1875 13.7942 20.2166 -0.0 0.0 0.0 -0.0 0.0 0.0 -5.76285e-14 5.2683e-12 8.02613e-14 70.2245 8.30563 -2.13181 -10.1205 -4.55706 17.6475 -0.00249206 -1.53739 -0.216116 5.57839e-10 -1.51342e-09 2.13375e-09 9.63268e-10 -2.62168e-09 3.68917e-09 5.57849e-10 -1.51342e-09 2.13373e-09 7.73091 5.47488 0.417314 5.57839e-10 -1.51342e-09 2.13375e-09 2.90554 0.965183 0.102902 5.57842e-10 -1.51342e-09 2.13376e-09 10.2786 0.731801 0.0259123 5.57833e-10 -1.51342e-09 2.13377e-09 2.22167 -0.733487 -0.20892 -5.77349e-14 5.2683e-12 8.0085e-14 -67.4132 16.8689 -2.95401 9.15242 -3.91915 -15.9295 6.94079e-06 0.00345588 -0.000485706 9.10911e-10 5.6765e-10 -1.45656e-09 1.57123e-09 9.80188e-10 -2.51743e-09 9.10906e-10 5.67647e-10 -1.45656e-09 -7.73091 5.47488 -0.417314 9.1091e-10 5.67647e-10 -1.45657e-09 -2.90554 0.965183 -0.102902 9.10905e-10 5.67647e-10 -1.45657e-09 -10.2786 0.731801 -0.0259123 9.10914e-10 5.67651e-10 -1.45657e-09 -2.22167 -0.733487 0.20892 -2.03217e-16 0.0 -3.88251e-19 -3.58225 -13.7906 -2.98491 -0.0109261 21.823 0.398096 -3.63725 -14.078 -11.1817 2.03217e-16 0.0 3.88251e-19 -0.541724 -11.9569 -3.87052 0.0428532 20.9349 -0.519046 4.91273 -14.3374 13.6043
20.532 83.3709 -8.49309 136.906 -85.9849 -130.551 -3.36641 -9.61957 0.80776 -0.277454 6.57687 0.396785 6.12788 -4.05198 11.9484 -38.1514 15.8611 24.9803 -0.0 0.0 0.0 -0.0 0.0 0.0 -6.63396e-14 5.97188e-12 9.12919e-14 85.6536 10.078 -2.71067 -12.0189 -5.46194 21.6465 -0.0049465 -2.00776 -0.282289 4.39604e-10 -1.6893e-09 2.05416e-09 7.58825e-10 -2.92614e-09 3.55137e-09 4.39613e-10 -1.6893e-09 2.05414e-09 7.73091 5.47488 0.417314 4.39604e-10 -1.68931e-09 2.05416e-09 2.90554 0.965183 0.102902 4.39607e-10 -1.68931e-09 2.05416e-09 10.2786 0.731801 0.0259123 4.39598e-10 -1.68931e-09 2.05417e-09 2.22167 -0.733487 -0.20892 -6.64529e-14 5.97188e-12 9.11428e-14 -82.0147 20.3943 -3.5678 10.8651 -4.68396 -19.4341 9.30216e-07 0.0275295 -0.00386901 8.2895e-10 6.33042e-10 -1.27897e-09 1.4299e-09 1.09339e-09 -2.21013e-09 8.28944e-10 6.33038e-10 -1.27896e-09 -7.73091 5.47488 -0.417314 8.28948e-10 6.33038e-10 -1.27897e-09 -2.90554 0.965183 -0.102902 8.28944e-10 6.33039e-10 -1.27897e-09 -10.2786 0.731801 -0.0259123 8.28953e-10 6.33042e-10 -1.27897e-09 -2.22167 -0.733487 0.20892 -2.03217e-16 0.0 -3.88251e-19 -4.72387 -15.6329 -3.68448 -0.0471463 25.6414 0.493159 -5.15329 -17.159 -13.9226 2.03217e-16 0.0 3.88251e-19 -0.863624 -14.1558 -4.75939 0.120842 25.9711 -0.675483 7.09289 -18.0666 16.9308
20.4025 83.3811 -8.40517 134.882 -85.9817 -128.519 -3.63694 -10.283 0.814997 -0.323849 6.91526 0.406168 6.93426 -4.3744 12.9758 -41.4099 15.8294 26.8931 -0.0 0.0 0.0 -0.0 0.0 0.0 -6.27478e-14 5.52113e-12 8.63595e-14 91.6387 10.743 -3.13141 -12.8163 -5.85946 23.3972 -0.00741717 -2.44695 -0.344103 -1.94169e-10 -1.44011e-09 5.58585e-10 -3.36211e-10 -2.49364e-09 9.64964e-10 -1.94161e-10 -1.44011e-09 5.58565e-10 7.73091 5.47488 0.417314 -1.9417e-10 -1.44011e-09 5.5858e-10 2.90554 0.965183 0.102902 -1.94165e-10 -1.44011e-09 5.58587e-10 10.2786 0.731801 0.0259123 -1.94174e-10 -1.44011e-09 5.58595e-10 2.22167 -0.733487 -0.20892 -6.28781e-14 5.52113e-12 8.61716e-14 -87.8641 21.4717 -3.60819 11.4955 -4.9606 -20.7827 1.38577e-06 0.0992612 -0.0139502 1.32857e-10 5.52426e-10 2.37343e-10 2.29607e-10 9.55268e-10 4.11699e-10 1.32853e-10 5.52424e-10 2.37351e-10 -7.73091 5.47488 -0.417314 1.32856e-10 5.52424e-10 2.37343e-10 -2.90554 0.965183 -0.102902 1.32852e-10 5.52424e-10 2.37339e-10 -10.2786 0.731801 -0.0259123 1.3286e-10 5.52426e-10 2.37338e-10 -2.22167 -0.733487 0.20892 -2.03217e-16 0.0 -3.88251e-19 -5.13395 -16.4017 -4.0596 -0.0652309 27.1161 0.530974 -5.82385 -18.1813 -15.1034 2.03217e-16 0.0 3.88251e-19 -0.938195 -15.0329 -5.10408 0.159725 27.924 -0.740391 8.05718 -19.4697 18.2593
20.4388 83.4641 -8.44002 136.137 -86.1419 -129.676 -3.56684 -10.1905 0.737907 -0.32695 6.68328 0.381058 7.32943 -4.41665 13.145 -41.119 14.4349 26.7237 -0.0 0.0 0.0 -0.0 0.0 0.0 -5.0301e-14 4.24237e-12 6.99163e-14 90.8585 10.6156 -3.43385 -12.8946 -5.93462 23.5339 -0.0100175 -2.86302 -0.4027 -1.18787e-09 -8.89267e-10 -1.92491e-09 -2.05303e-09 -1.53819e-09 -3.32979e-09 -1.18787e-09 -8.89266e-10 -1.92492e-09 7.73091 5.47488 0.417314 -1.18788e-09 -8.89267e-10 -1.92491e-09 2.90554 0.965183 0.102902 -1.18787e-09 -8.89268e-10 -1.9249e-09 10.2786 0.731801 0.0259123 -1.18788e-09 -8.89268e-10 -1.9249e-09 2.22167 -0.733487 -0.20892 -5.04551e-14 4.24236e-12 6.9643e-14 -87.4955 20.8035 -3.22202 11.4024 -4.91478 -20.5866 4.75775e-05 0.204039 -0.0286758 -9.9342e-10 3.67593e-10 2.68298e-09 -1.71247e-09 6.37738e-10 4.64027e-09 -9.93423e-10 3.67594e-10 2.68299e-09 -7.73091 5.47488 -0.417314 -9.93421e-10 3.67594e-10 2.68298e-09 -2.90554 0.965183 -0.102902 -9.93423e-10 3.67594e-10 2.68298e-09 -10.2786 0.731801 -0.0259123 -9.93417e-10 3.67595e-10 2.68297e-09 -2.22167 -0.733487 0.20892 -2.03217e-16 0.0 -3.88251e-19 -4.99737 -16.4058 -4.19364 -0.0631461 26.9165 0.523801 -5.73111 -17.7851 -15.1073 2.03217e-16 0.0 3.88251e-19 -0.800411 -14.9703 -5.04831 0.154869 27.6752 -0.730732 7.91706 -19.2987 18.0577
